<svg xmlns="http://www.w3.org/2000/svg" xmlns:xlink="http://www.w3.org/1999/xlink" width="287.99997731270423" height="515.200096331259" viewBox="0 0 287.99997731270423 515.200096331259" fill="none">
<g filter="url(#filter_wtKNL6SgNJKxZ5va_SS_O)">
<g  clip-path="url(#clip-path-wtKNL6SgNJKxZ5va_SS_O)">
<path  transform="translate(16.200000863383366, 12.150000647537553)"   fill="#C63137"  d="M0 482.8L255.6 482.8L255.6 0L0 0L0 482.8Z">
</path>
<path    stroke="rgba(241, 194, 157, 0.2)" stroke-width="0.284"    d="M181.937 -174.077L-259.058 266.918">
</path>
<path    stroke="rgba(241, 194, 157, 0.2)" stroke-width="0.284"    d="M207.441 -148.573L-233.554 292.422">
</path>
<path    stroke="rgba(241, 194, 157, 0.2)" stroke-width="0.284"    d="M232.945 -123.069L-208.05 317.926">
</path>
<path    stroke="rgba(241, 194, 157, 0.2)" stroke-width="0.284"    d="M258.449 -97.5653L-182.546 343.43">
</path>
<path    stroke="rgba(241, 194, 157, 0.2)" stroke-width="0.284"    d="M283.953 -72.0613L-157.042 368.934">
</path>
<path    stroke="rgba(241, 194, 157, 0.2)" stroke-width="0.284"    d="M309.456 -46.5574L-131.539 394.438">
</path>
<path    stroke="rgba(241, 194, 157, 0.2)" stroke-width="0.284"    d="M334.961 -21.0533L-106.034 419.942">
</path>
<path    stroke="rgba(241, 194, 157, 0.2)" stroke-width="0.284"    d="M360.464 4.45066L-80.5305 445.446">
</path>
<path    stroke="rgba(241, 194, 157, 0.2)" stroke-width="0.284"    d="M385.969 29.9546L-55.0269 470.95">
</path>
<path    stroke="rgba(241, 194, 157, 0.2)" stroke-width="0.284"    d="M411.472 55.4585L-29.5224 496.453">
</path>
<path    stroke="rgba(241, 194, 157, 0.2)" stroke-width="0.284"    d="M436.976 80.9625L-4.01859 521.958">
</path>
<path    stroke="rgba(241, 194, 157, 0.2)" stroke-width="0.284"    d="M462.48 106.466L21.4852 547.461">
</path>
<path    stroke="rgba(241, 194, 157, 0.2)" stroke-width="0.284"    d="M487.984 131.97L46.9894 572.965">
</path>
<path    stroke="rgba(241, 194, 157, 0.2)" stroke-width="0.284"    d="M513.488 157.474L72.4933 598.469">
</path>
<path    stroke="rgba(241, 194, 157, 0.2)" stroke-width="0.284"    d="M538.992 182.978L97.9972 623.974">
</path>
<path    stroke="rgba(241, 194, 157, 0.2)" stroke-width="0.284"    d="M564.496 208.482L123.501 649.477">
</path>
<path    stroke="rgba(241, 194, 157, 0.2)" stroke-width="0.284"    d="M590 233.986L149.005 674.981">
</path>
<path    stroke="rgba(241, 194, 157, 0.2)" stroke-width="0.284"    d="M615.504 259.49L174.509 700.485">
</path>
<path    stroke="rgba(241, 194, 157, 0.2)" stroke-width="0.284"    d="M143.716 -174.077L584.71 266.917">
</path>
<path    stroke="rgba(241, 194, 157, 0.2)" stroke-width="0.284"    d="M118.212 -148.573L559.207 292.421">
</path>
<path    stroke="rgba(241, 194, 157, 0.2)" stroke-width="0.284"    d="M92.708 -123.069L533.702 317.925">
</path>
<path    stroke="rgba(241, 194, 157, 0.2)" stroke-width="0.284"    d="M67.204 -97.5654L508.198 343.429">
</path>
<path    stroke="rgba(241, 194, 157, 0.2)" stroke-width="0.284"    d="M41.7 -72.0613L482.694 368.933">
</path>
<path    stroke="rgba(241, 194, 157, 0.2)" stroke-width="0.284"    d="M16.1961 -46.5574L457.191 394.437">
</path>
<path    stroke="rgba(241, 194, 157, 0.2)" stroke-width="0.284"    d="M-9.30787 -21.0534L431.687 419.941">
</path>
<path    stroke="rgba(241, 194, 157, 0.2)" stroke-width="0.284"    d="M-34.8117 4.45045L406.182 445.445">
</path>
<path    stroke="rgba(241, 194, 157, 0.2)" stroke-width="0.284"    d="M-60.3156 29.9544L380.679 470.949">
</path>
<path    stroke="rgba(241, 194, 157, 0.2)" stroke-width="0.284"    d="M-85.8196 55.4583L355.175 496.453">
</path>
<path    stroke="rgba(241, 194, 157, 0.2)" stroke-width="0.284"    d="M-111.324 80.9623L329.671 521.956">
</path>
<path    stroke="rgba(241, 194, 157, 0.2)" stroke-width="0.284"    d="M-136.828 106.466L304.167 547.461">
</path>
<path    stroke="rgba(241, 194, 157, 0.2)" stroke-width="0.284"    d="M-162.332 131.97L278.663 572.965">
</path>
<path    stroke="rgba(241, 194, 157, 0.2)" stroke-width="0.284"    d="M-187.836 157.474L253.159 598.469">
</path>
<path    stroke="rgba(241, 194, 157, 0.2)" stroke-width="0.284"    d="M-213.34 182.978L227.654 623.972">
</path>
<path    stroke="rgba(241, 194, 157, 0.2)" stroke-width="0.284"    d="M-238.844 208.482L202.15 649.476">
</path>
<path    stroke="rgba(241, 194, 157, 0.2)" stroke-width="0.284"    d="M-264.348 233.986L176.646 674.98">
</path>
<path    stroke="rgba(241, 194, 157, 0.2)" stroke-width="0.284"    d="M-289.851 259.49L151.143 700.484">
</path>
<g >
<path     fill="#120101"  d="M72.2034 77.6433L72.2034 77.0469Q73.2173 76.9872 73.7242 76.8083Q74.2312 76.6294 74.3952 76.0926Q74.5592 75.5559 74.5592 74.4823L74.5592 59.6916Q74.5592 58.5883 74.3952 58.0664Q74.2312 57.5446 73.7093 57.3507Q73.1875 57.1569 72.2034 57.1271L72.2034 56.5307Q72.9489 56.5605 74.0672 56.5903Q75.1854 56.6202 76.2888 56.6202Q77.5412 56.6202 78.6147 56.5903Q79.6882 56.5605 80.3443 56.5307L80.3443 57.1271Q79.3602 57.1569 78.8533 57.3507Q78.3463 57.5446 78.1674 58.0664Q77.9885 58.5883 77.9885 59.6916L77.9885 74.4823Q77.9885 75.5559 78.1674 76.0926Q78.3463 76.6294 78.8533 76.8083Q79.3602 76.9872 80.3443 77.0469L80.3443 77.6433Q79.6882 77.5836 78.6147 77.5687Q77.5412 77.5538 76.2888 77.5538Q75.1854 77.5538 74.0672 77.5687Q72.9489 77.5836 72.2034 77.6433ZM59.679 77.6433L59.679 77.0469Q60.6929 76.9872 61.1998 76.8083Q61.7068 76.6294 61.8708 76.0926Q62.0348 75.5559 62.0348 74.4823L62.0348 59.6916Q62.0348 58.5883 61.8708 58.0664Q61.7068 57.5446 61.1849 57.3507Q60.6631 57.1569 59.679 57.1271L59.679 56.5307Q60.3649 56.5605 61.4533 56.5903Q62.5417 56.6202 63.7942 56.6202Q64.9273 56.6202 66.0158 56.5903Q67.1042 56.5605 67.8199 56.5307L67.8199 57.1271Q66.8358 57.1569 66.3289 57.3507Q65.8219 57.5446 65.643 58.0664Q65.4641 58.5883 65.4641 59.6916L65.4641 74.4823Q65.4641 75.5559 65.643 76.0926Q65.8219 76.6294 66.3289 76.8083Q66.8358 76.9872 67.8199 77.0469L67.8199 77.6433Q67.1042 77.5836 66.0158 77.5687Q64.9273 77.5538 63.7942 77.5538Q62.5417 77.5538 61.4533 77.5687Q60.3649 77.5836 59.679 77.6433ZM64.1222 67.3255L64.1222 66.7291L75.9011 66.7291L75.9011 67.3255L64.1222 67.3255ZM91.5864 56.4114L98.8625 75.1384Q99.28 76.2417 99.8316 76.6294Q100.383 77.017 100.86 77.0469L100.86 77.6433Q100.145 77.5836 99.1756 77.5687Q98.2065 77.5538 97.2224 77.5538Q95.97 77.5538 94.8964 77.5687Q93.8229 77.5836 93.1669 77.6433L93.1669 77.0469Q94.6877 76.9872 95.0903 76.525Q95.4928 76.0628 94.8964 74.542L89.5288 60.0495L90.006 59.5127L85.0558 72.4546Q84.3402 74.2438 84.37 75.2278Q84.3998 76.2119 85.0708 76.6145Q85.7417 77.017 86.9941 77.0469L86.9941 77.6433Q86.0995 77.5836 85.19 77.5687Q84.2805 77.5538 83.4754 77.5538Q82.7597 77.5538 82.208 77.5687Q81.6564 77.5836 81.2091 77.6433L81.2091 77.0469Q81.8353 76.8978 82.4615 76.3014Q83.0877 75.705 83.6543 74.2736L90.5725 56.4114Q90.8111 56.4114 91.0795 56.4114Q91.3479 56.4114 91.5864 56.4114ZM94.7175 69.0551L94.7175 69.6515L85.8312 69.6515L86.1294 69.0551L94.7175 69.0551ZM101.815 56.5307Q102.501 56.5605 103.589 56.5903Q104.677 56.6202 105.751 56.6202Q107.182 56.6202 108.479 56.5903Q109.777 56.5605 110.313 56.5605Q114.101 56.5605 115.979 58.2006Q117.858 59.8407 117.858 62.4351Q117.858 63.5086 117.485 64.6865Q117.112 65.8644 116.188 66.8633Q115.264 67.8623 113.683 68.4885Q112.103 69.1147 109.657 69.1147L106.735 69.1147L106.735 68.5183L109.359 68.5183Q111.357 68.5183 112.416 67.7132Q113.474 66.9081 113.847 65.596Q114.22 64.2839 114.22 62.7631Q114.22 59.9302 113.206 58.5286Q112.192 57.1271 109.687 57.1271Q108.405 57.1271 108.002 57.634Q107.6 58.141 107.6 59.6916L107.6 74.4227Q107.6 75.526 107.838 76.0777Q108.077 76.6294 108.733 76.8083Q109.389 76.9872 110.671 77.017L110.671 77.6433Q109.866 77.5836 108.584 77.5687Q107.302 77.5538 105.93 77.5538Q104.737 77.5538 103.649 77.5687Q102.56 77.5836 101.815 77.6433L101.815 77.0469Q102.829 76.9872 103.336 76.8083Q103.842 76.6294 104.006 76.0926Q104.17 75.5559 104.17 74.4823L104.17 59.6916Q104.17 58.5883 104.006 58.0664Q103.842 57.5446 103.321 57.3507Q102.799 57.1569 101.815 57.1271L101.815 56.5307ZM119.826 56.5307Q120.512 56.5605 121.6 56.5903Q122.689 56.6202 123.762 56.6202Q125.194 56.6202 126.491 56.5903Q127.788 56.5605 128.325 56.5605Q132.112 56.5605 133.99 58.2006Q135.869 59.8407 135.869 62.4351Q135.869 63.5086 135.496 64.6865Q135.124 65.8644 134.199 66.8633Q133.275 67.8623 131.694 68.4885Q130.114 69.1147 127.669 69.1147L124.746 69.1147L124.746 68.5183L127.37 68.5183Q129.368 68.5183 130.427 67.7132Q131.486 66.9081 131.858 65.596Q132.231 64.2839 132.231 62.7631Q132.231 59.9302 131.217 58.5286Q130.203 57.1271 127.698 57.1271Q126.416 57.1271 126.014 57.634Q125.611 58.141 125.611 59.6916L125.611 74.4227Q125.611 75.526 125.85 76.0777Q126.088 76.6294 126.744 76.8083Q127.4 76.9872 128.683 77.017L128.683 77.6433Q127.877 77.5836 126.595 77.5687Q125.313 77.5538 123.941 77.5538Q122.748 77.5538 121.66 77.5687Q120.571 77.5836 119.826 77.6433L119.826 77.0469Q120.84 76.9872 121.347 76.8083Q121.854 76.6294 122.018 76.0926Q122.182 75.5559 122.182 74.4823L122.182 59.6916Q122.182 58.5883 122.018 58.0664Q121.854 57.5446 121.332 57.3507Q120.81 57.1569 119.826 57.1271L119.826 56.5307ZM154.507 56.5307L154.507 57.1271Q153.91 57.2762 153.299 57.9471Q152.688 58.6181 151.942 60.0495L146.068 71.7091L145.262 71.7091L138.285 58.8268Q137.688 57.7533 137.286 57.4551Q136.883 57.1569 136.555 57.1569L136.555 56.5307Q137.211 56.5605 137.927 56.5903Q138.642 56.6202 139.477 56.6202Q140.551 56.6202 141.803 56.6052Q143.056 56.5903 144.129 56.5307L144.129 57.1569Q143.384 57.1569 142.802 57.306Q142.221 57.4551 142.027 57.8875Q141.833 58.3199 142.251 59.125L147.171 68.578L146.694 69.0849L150.362 61.779Q151.286 59.96 151.301 58.961Q151.316 57.9621 150.645 57.5595Q149.974 57.1569 148.722 57.1271L148.722 56.5307Q149.646 56.5605 150.541 56.5903Q151.435 56.6202 152.24 56.6202Q152.986 56.6202 153.523 56.5903Q154.059 56.5605 154.507 56.5307ZM147.648 68.0412L147.648 74.4823Q147.648 75.5559 147.827 76.0926Q148.006 76.6294 148.513 76.8083Q149.02 76.9872 150.004 77.0469L150.004 77.6433Q149.288 77.5836 148.185 77.5687Q147.081 77.5538 145.948 77.5538Q144.726 77.5538 143.622 77.5687Q142.519 77.5836 141.863 77.6433L141.863 77.0469Q142.877 76.9872 143.384 76.8083Q143.891 76.6294 144.055 76.0926Q144.219 75.5559 144.219 74.4823L144.219 68.3692L146.157 70.2181L147.648 68.0412ZM182.226 56.5307L182.226 57.1271Q181.212 57.1867 180.705 57.4849Q180.198 57.7831 180.034 58.4541Q179.87 59.125 179.87 60.3477L179.87 77.7625Q179.632 77.7625 179.393 77.7625Q179.155 77.7625 178.886 77.7625L166.243 59.3934L166.243 73.707Q166.243 74.9595 166.421 75.6602Q166.6 76.361 167.197 76.6592Q167.793 76.9574 169.016 77.0469L169.016 77.6433Q168.449 77.5836 167.57 77.5687Q166.69 77.5538 165.915 77.5538Q165.169 77.5538 164.424 77.5687Q163.678 77.5836 163.201 77.6433L163.201 77.0469Q164.185 76.9574 164.692 76.6741Q165.199 76.3908 165.378 75.705Q165.557 75.0191 165.557 73.8263L165.557 59.6916Q165.557 58.5883 165.378 58.0664Q165.199 57.5446 164.692 57.3507Q164.185 57.1569 163.201 57.1271L163.201 56.5307Q163.678 56.5605 164.424 56.5903Q165.169 56.6202 165.915 56.6202Q166.571 56.6202 167.197 56.5903Q167.823 56.5605 168.3 56.5307L179.184 72.0967L179.184 60.4669Q179.184 59.1847 178.991 58.4988Q178.797 57.813 178.2 57.4998Q177.604 57.1867 176.411 57.1271L176.411 56.5307Q176.948 56.5605 177.843 56.5903Q178.737 56.6202 179.512 56.6202Q180.258 56.6202 181.003 56.5903Q181.749 56.5605 182.226 56.5307ZM199.611 56.5307Q199.492 57.6639 199.447 58.7225Q199.402 59.7811 199.402 60.3477Q199.402 60.9142 199.432 61.4212Q199.462 61.9281 199.492 62.2561L198.806 62.2561Q198.597 60.3477 198.165 59.2443Q197.732 58.141 196.883 57.6788Q196.033 57.2166 194.512 57.2166L192.454 57.2166Q191.5 57.2166 191.008 57.3806Q190.516 57.5446 190.337 58.0366Q190.158 58.5286 190.158 59.5723L190.158 74.6016Q190.158 75.6155 190.337 76.1224Q190.516 76.6294 191.008 76.7934Q191.5 76.9574 192.454 76.9574L194.393 76.9574Q196.092 76.9574 197.091 76.4206Q198.09 75.8839 198.612 74.6613Q199.134 73.4386 199.402 71.3214L200.088 71.3214Q199.999 72.1862 199.999 73.5877Q199.999 74.1841 200.044 75.3173Q200.088 76.4505 200.208 77.6433Q198.687 77.5836 196.778 77.5687Q194.87 77.5538 193.379 77.5538Q192.454 77.5538 190.919 77.5538Q189.383 77.5538 187.638 77.5687Q185.894 77.5836 184.373 77.6433L184.373 77.0469Q185.387 76.9872 185.894 76.8083Q186.401 76.6294 186.565 76.0926Q186.729 75.5559 186.729 74.4823L186.729 59.6916Q186.729 58.5883 186.565 58.0664Q186.401 57.5446 185.879 57.3507Q185.357 57.1569 184.373 57.1271L184.373 56.5307Q185.894 56.5605 187.638 56.5903Q189.383 56.6202 190.919 56.6202Q192.454 56.6202 193.379 56.6202Q194.75 56.6202 196.495 56.6052Q198.239 56.5903 199.611 56.5307ZM194.661 66.7291Q194.661 66.7291 194.661 67.0273Q194.661 67.3255 194.661 67.3255L189.264 67.3255Q189.264 67.3255 189.264 67.0273Q189.264 66.7291 189.264 66.7291L194.661 66.7291ZM195.526 62.7929Q195.407 64.4926 195.421 65.3872Q195.436 66.2818 195.436 67.0273Q195.436 67.7728 195.466 68.6674Q195.496 69.562 195.615 71.2618L194.929 71.2618Q194.78 70.2777 194.542 69.3682Q194.303 68.4587 193.692 67.8921Q193.081 67.3255 191.798 67.3255L191.798 66.7291Q193.081 66.7291 193.662 66.0582Q194.244 65.3872 194.467 64.4628Q194.691 63.5384 194.84 62.7929L195.526 62.7929ZM229.312 56.5307L229.312 57.1271Q228.715 57.2762 228.03 57.9173Q227.344 58.5585 226.867 60.0495L221.38 77.7625Q221.26 77.7625 221.126 77.7625Q220.992 77.7625 220.873 77.7625Q220.724 77.7625 220.604 77.7625Q220.485 77.7625 220.366 77.7625L214.044 58.9461Q213.686 57.8428 213.224 57.4998Q212.762 57.1569 212.344 57.1271L212.344 56.5307Q212.97 56.5605 213.895 56.5903Q214.819 56.6202 215.684 56.6202Q216.907 56.6202 217.965 56.5903Q219.024 56.5605 219.65 56.5307L219.65 57.1271Q218.756 57.1569 218.234 57.3209Q217.712 57.4849 217.637 57.9919Q217.563 58.4988 217.921 59.632L222.304 73.1106L221.797 73.7667L225.555 61.9281Q226.151 60.0793 226.106 59.0505Q226.061 58.0217 225.42 57.5893Q224.779 57.1569 223.557 57.1271L223.557 56.5307Q224.451 56.5605 225.346 56.5903Q226.24 56.6202 227.075 56.6202Q227.821 56.6202 228.343 56.5903Q228.865 56.5605 229.312 56.5307ZM208.319 56.5307L208.319 57.1271Q207.603 57.1867 207.305 57.47Q207.006 57.7533 207.021 58.2752Q207.036 58.797 207.305 59.632L211.927 73.4386L211.151 74.3034L215.207 61.6896L215.654 62.4351L210.794 77.7625Q210.674 77.7625 210.555 77.7625Q210.436 77.7625 210.287 77.7625Q210.167 77.7625 210.033 77.7625Q209.899 77.7625 209.78 77.7625L203.339 59.0356Q202.951 57.9024 202.384 57.5297Q201.818 57.1569 201.341 57.1271L201.341 56.5307Q202.056 56.5605 203.04 56.5903Q204.024 56.6202 204.949 56.6202Q206.022 56.6202 206.902 56.5903Q207.782 56.5605 208.319 56.5307ZM124.069 96.2808L124.069 96.8772Q123.472 97.0263 122.861 97.6972Q122.25 98.3682 121.504 99.7995L115.63 111.459L114.825 111.459L107.847 98.5769Q107.25 97.5034 106.848 97.2052Q106.445 96.907 106.117 96.907L106.117 96.2808Q106.773 96.3106 107.489 96.3404Q108.204 96.3702 109.039 96.3702Q110.113 96.3702 111.365 96.3553Q112.618 96.3404 113.691 96.2808L113.691 96.907Q112.946 96.907 112.364 97.0561Q111.783 97.2052 111.589 97.6376Q111.395 98.07 111.813 98.8751L116.733 108.328L116.256 108.835L119.924 101.529Q120.848 99.7101 120.863 98.7111Q120.878 97.7121 120.207 97.3096Q119.536 96.907 118.284 96.8772L118.284 96.2808Q119.208 96.3106 120.103 96.3404Q120.997 96.3702 121.802 96.3702Q122.548 96.3702 123.085 96.3404Q123.621 96.3106 124.069 96.2808ZM117.21 107.791L117.21 114.232Q117.21 115.306 117.389 115.843Q117.568 116.379 118.075 116.558Q118.582 116.737 119.566 116.797L119.566 117.393Q118.85 117.334 117.747 117.319Q116.644 117.304 115.51 117.304Q114.288 117.304 113.184 117.319Q112.081 117.334 111.425 117.393L111.425 116.797Q112.439 116.737 112.946 116.558Q113.453 116.379 113.617 115.843Q113.781 115.306 113.781 114.232L113.781 108.119L115.719 109.968L117.21 107.791ZM140.589 96.2808Q140.47 97.4139 140.425 98.4725Q140.38 99.5311 140.38 100.098Q140.38 100.664 140.41 101.171Q140.44 101.678 140.47 102.006L139.784 102.006Q139.575 100.098 139.143 98.9944Q138.71 97.891 137.86 97.4288Q137.011 96.9666 135.49 96.9666L133.432 96.9666Q132.478 96.9666 131.986 97.1306Q131.494 97.2946 131.315 97.7867Q131.136 98.2787 131.136 99.3224L131.136 114.352Q131.136 115.366 131.315 115.873Q131.494 116.379 131.986 116.543Q132.478 116.707 133.432 116.707L135.371 116.707Q137.07 116.707 138.069 116.171Q139.068 115.634 139.59 114.411Q140.112 113.189 140.38 111.071L141.066 111.071Q140.977 111.936 140.977 113.338Q140.977 113.934 141.021 115.067Q141.066 116.201 141.185 117.393Q139.665 117.334 137.756 117.319Q135.848 117.304 134.357 117.304Q133.432 117.304 131.896 117.304Q130.361 117.304 128.616 117.319Q126.872 117.334 125.351 117.393L125.351 116.797Q126.365 116.737 126.872 116.558Q127.379 116.379 127.543 115.843Q127.707 115.306 127.707 114.232L127.707 99.4417Q127.707 98.3383 127.543 97.8165Q127.379 97.2946 126.857 97.1008Q126.335 96.907 125.351 96.8772L125.351 96.2808Q126.872 96.3106 128.616 96.3404Q130.361 96.3702 131.896 96.3702Q133.432 96.3702 134.357 96.3702Q135.728 96.3702 137.473 96.3553Q139.217 96.3404 140.589 96.2808ZM135.639 106.479Q135.639 106.479 135.639 106.777Q135.639 107.076 135.639 107.076L130.241 107.076Q130.241 107.076 130.241 106.777Q130.241 106.479 130.241 106.479L135.639 106.479ZM136.504 102.543Q136.384 104.243 136.399 105.137Q136.414 106.032 136.414 106.777Q136.414 107.523 136.444 108.418Q136.474 109.312 136.593 111.012L135.907 111.012Q135.758 110.028 135.52 109.118Q135.281 108.209 134.67 107.642Q134.058 107.076 132.776 107.076L132.776 106.479Q134.058 106.479 134.64 105.808Q135.221 105.137 135.445 104.213Q135.669 103.288 135.818 102.543L136.504 102.543ZM152.666 96.1615L159.942 114.888Q160.36 115.992 160.911 116.379Q161.463 116.767 161.94 116.797L161.94 117.393Q161.224 117.334 160.255 117.319Q159.286 117.304 158.302 117.304Q157.05 117.304 155.976 117.319Q154.903 117.334 154.247 117.393L154.247 116.797Q155.767 116.737 156.17 116.275Q156.573 115.813 155.976 114.292L150.609 99.7995L151.086 99.2628L146.136 112.205Q145.42 113.994 145.45 114.978Q145.479 115.962 146.15 116.365Q146.821 116.767 148.074 116.797L148.074 117.393Q147.179 117.334 146.27 117.319Q145.36 117.304 144.555 117.304Q143.839 117.304 143.288 117.319Q142.736 117.334 142.289 117.393L142.289 116.797Q142.915 116.648 143.541 116.051Q144.167 115.455 144.734 114.024L151.652 96.1615Q151.891 96.1615 152.159 96.1615Q152.428 96.1615 152.666 96.1615ZM155.797 108.805L155.797 109.402L146.911 109.402L147.209 108.805L155.797 108.805ZM162.894 96.2808Q163.58 96.3106 164.669 96.3404Q165.757 96.3702 166.831 96.3702Q168.262 96.3702 169.559 96.3404Q170.856 96.3106 171.393 96.3106Q175.18 96.3106 177.059 97.7569Q178.938 99.2031 178.938 101.499Q178.938 102.424 178.565 103.452Q178.192 104.481 177.268 105.361Q176.343 106.241 174.763 106.807Q173.182 107.374 170.737 107.374L167.874 107.374L167.874 106.777L170.439 106.777Q172.437 106.777 173.495 106.106Q174.554 105.436 174.927 104.317Q175.299 103.199 175.299 101.827Q175.299 99.4715 174.286 98.1743Q173.272 96.8772 170.767 96.8772Q169.485 96.8772 169.082 97.3841Q168.679 97.891 168.679 99.4417L168.679 114.232Q168.679 115.306 168.858 115.843Q169.037 116.379 169.544 116.558Q170.051 116.737 171.035 116.797L171.035 117.393Q170.32 117.334 169.231 117.319Q168.143 117.304 167.01 117.304Q165.757 117.304 164.669 117.319Q163.58 117.334 162.894 117.393L162.894 116.797Q163.908 116.737 164.415 116.558Q164.922 116.379 165.086 115.843Q165.25 115.306 165.25 114.232L165.25 99.4417Q165.25 98.3383 165.086 97.8165Q164.922 97.2946 164.4 97.1008Q163.878 96.907 162.894 96.8772L162.894 96.2808ZM167.934 106.867Q169.455 106.927 170.379 107.001Q171.304 107.076 171.93 107.135Q172.556 107.195 173.093 107.284Q175.329 107.583 176.358 108.477Q177.387 109.372 177.775 111.221L178.52 114.262Q178.788 115.544 179.102 116.081Q179.415 116.618 180.041 116.618Q180.518 116.588 180.831 116.335Q181.144 116.081 181.502 115.634L181.92 115.962Q181.234 116.886 180.488 117.349Q179.743 117.811 178.49 117.811Q177.208 117.811 176.298 117.14Q175.389 116.469 175.001 114.59L174.405 111.608Q174.137 110.326 173.809 109.387Q173.48 108.447 172.899 107.911Q172.318 107.374 171.214 107.374L167.994 107.374L167.934 106.867Z">
</path>
</g>
<path    stroke="rgba(241, 194, 157, 1)" stroke-width="4.827999999999999"  stroke-linecap="round"  d="M23.8681 200.39C23.8681 194.94 26.9535 190.826 31.6844 190.826C37.1352 190.826 37.6494 194.425 39.1921 197.819C40.7348 201.213 48.8596 192.78 65.4177 192.78">
</path>
<path    stroke="rgba(241, 194, 157, 1)" stroke-width="4.827999999999999" stroke-linejoin="round" stroke-linecap="round"  d="M49.7849 187.843C46.9053 182.495 42.7913 173.341 49.7849 170.153C56.7785 166.965 61.4343 177.065 61.9202 180.027C62.167 177.065 70.6629 167.684 78.1707 170.153C85.6785 172.621 79.1657 180.809 78.1707 185.375L125.738 166.171C126.016 161.636 124.914 153.935 134.068 150.849C143.221 147.764 148.259 156.298 148.259 160.823C157.114 157.275 195.671 136.552 203.281 121.64">
</path>
<path    stroke="rgba(241, 194, 157, 1)" stroke-width="4.827999999999999"  stroke-linecap="round"  d="M127.528 179.142C128.976 176.927 132.356 171.758 142.58 171.758">
</path>
<path    stroke="rgba(241, 194, 157, 1)" stroke-width="4.827999999999999"  stroke-linecap="round"  d="M188.349 116.946C184.153 122.315 174.362 134.841 155.644 146.874">
</path>
<path    stroke="rgba(241, 194, 157, 1)" stroke-width="4.827999999999999"  stroke-linecap="round"  d="M54.6187 202.55C56.2848 205.142 64.4919 213.143 73.9537 210.881C83.4155 208.618 83.1069 200.288 89.689 197.511C102.197 192.234 148.311 214.789 162.812 206.15C177.313 197.511 172.521 184.444 171.965 180.233">
</path>
<path    stroke="rgba(0, 0, 0, 1)" stroke-width="0.284"  stroke-linecap="round"  d="M166.206 174.782C181.119 181.878 209.401 226.102 155.51 243.894">
</path>
<path    stroke="rgba(241, 194, 157, 1)" stroke-width="4.827999999999999"  stroke-linecap="round"  d="M166.206 174.782C181.119 181.878 209.401 226.102 155.51 243.894">
</path>
<path    stroke="rgba(241, 194, 157, 1)" stroke-width="4.827999999999999"  stroke-linecap="round"  d="M180.605 228.467C178.856 230.73 174.228 236.901 161.167 232.067C148.105 227.233 104.91 203.784 113.138 232.067">
</path>
<path    stroke="rgba(241, 194, 157, 1)" stroke-width="4.827999999999999"  stroke-linecap="round"  d="M124.451 219.005C123.895 221.381 122.497 226.205 125.993 232.581">
</path>
<path    stroke="rgba(241, 194, 157, 1)" stroke-width="4.827999999999999" stroke-linejoin="round" stroke-linecap="round"  d="M196.824 160.824C202.703 161.676 227.496 166.93 241.128 180.136C232.182 180.136 228.49 181.698 219.686 182.976C232.04 185.958 237.152 187.946 246.098 194.478C238.004 195.898 236.158 196.04 228.49 197.602C234.582 201.905 239.992 226.712 228.49 246.308">
</path>
<path    stroke="rgba(241, 194, 157, 1)" stroke-width="4.827999999999999" stroke-linejoin="round" stroke-linecap="round"  d="M214.432 322.739C219.686 318.76 244.11 319.483 257.742 330.696C249.932 330.696 246.098 332.504 239.566 336C251.92 338.532 261.86 344.078 266.972 352.035C258.878 353.24 254.05 353.964 246.098 357.219C248.49 358.653 262.002 364.935 266.972 372.409C261.576 371.324 257.742 371.445 252.63 372.409C257.742 383.621 246.098 401.826 231.756 408.577">
</path>
<path    stroke="rgba(241, 194, 157, 1)" stroke-width="4.827999999999999"  stroke-linecap="round"  d="M170.554 161.108C203.356 170.764 232.182 203.566 216.846 237.788C201.51 272.01 158.131 270.02 124.404 253.55C33.0981 208.962 3.27808 313.19 70.7281 334.49">
</path>
<path    stroke="rgba(241, 194, 157, 1)" stroke-width="4.827999999999999"  stroke-linecap="round"  d="M94.868 265.336C86.064 260.224 63.06 257.81 55.676 277.69C48.292 297.57 61.072 307.794 69.734 313.9">
</path>
<path    stroke="rgba(241, 194, 157, 1)" stroke-width="4.827999999999999"  stroke-linecap="round"  d="M202.708 399.1C211.37 392.994 221.799 378.226 216.766 362.89C214.254 355.238 210.749 351.404 206.871 349.483">
</path>
<path    stroke="rgba(241, 194, 157, 1)" stroke-width="4.827999999999999"  stroke-linecap="round"  d="M208.751 329.804C228.632 333.497 240.984 348.067 240.984 368.288C240.984 395.266 217.841 414.436 200.516 420.401">
</path>
<path    stroke="rgba(241, 194, 157, 1)" stroke-width="4.827999999999999"  stroke-linecap="round"  d="M115.175 502.336C105.403 498.234 93.5918 481.461 93.5918 461.603C93.5919 441.744 103.814 423.808 126.676 416.566">
</path>
<path    stroke="rgba(241, 194, 157, 1)" stroke-width="4.827999999999999"  stroke-linecap="round"  d="M114.465 406.483C71.0998 425.37 66.753 452.331 71.0998 472.08C76.8991 498.427 103.623 512.173 121.825 514.275">
</path>
<path     fill="#120101"  d="M259.131 321.118L145.379 212.825C144.601 212.09 143.399 212.09 142.621 212.825L28.8687 320.977C28.4727 321.359 28.2535 321.875 28.2535 322.426L28.2464 326.436C28.2464 326.973 28.4586 327.482 28.8333 327.857L142.586 441.609C143.363 442.387 144.636 442.387 145.414 441.609L259.166 327.857C259.541 327.482 259.753 326.973 259.753 326.436L259.746 322.568C259.746 322.016 259.527 321.5 259.131 321.118Z">
</path>
<path   fill="rgba(18, 1, 1, 1)"  d="M143.012 213.24L29.2627 321.388L28.8713 320.977L29.2627 321.388L28.8713 320.977L29.2627 321.388Q29.0495 321.591 28.9335 321.861Q28.8175 322.131 28.8174 322.426L28.8174 322.426L28.816 326.44L28.816 326.44L28.816 326.44Q28.8158 327.034 29.2354 327.453L28.8338 327.855L29.2354 327.453L142.987 441.205L142.585 441.606L142.987 441.205C143.546 441.764 144.453 441.764 145.012 441.205L145.414 441.606L145.012 441.205L258.764 327.453L259.165 327.855L258.764 327.453L259.165 327.855L258.764 327.453Q259.183 327.034 259.183 326.44L259.183 326.44L259.183 322.568L259.751 322.568L259.183 322.568L259.751 322.568L259.183 322.568Q259.183 322.274 259.067 322.003Q258.951 321.733 258.738 321.53L258.738 321.53L144.986 213.24L145.377 212.829L144.986 213.24L145.377 212.829L144.986 213.24Q144.571 212.846 143.999 212.846Q143.427 212.845 143.012 213.24L142.62 212.828L143.012 213.24ZM142.229 212.417L142.229 212.417Q142.595 212.069 143.061 211.886Q143.513 211.709 143.999 211.71Q144.486 211.71 144.937 211.887Q145.404 212.07 145.769 212.418L145.769 212.418L145.769 212.418L259.522 320.708L259.13 321.119L259.522 320.708Q259.904 321.071 260.111 321.556Q260.319 322.04 260.319 322.568L260.319 322.568L260.319 322.568L260.319 326.44L259.751 326.44L260.319 326.44Q260.319 326.951 260.124 327.423Q259.928 327.895 259.567 328.256L259.567 328.256L259.567 328.256L145.815 442.008L145.815 442.008C144.812 443.011 143.186 443.011 142.184 442.008L142.184 442.008L28.4321 328.257L28.4321 328.257Q28.0708 327.895 27.8753 327.423Q27.6798 326.951 27.68 326.44L28.248 326.44L27.68 326.44L28.248 326.44L27.68 326.44L27.6814 322.425L28.2494 322.425L27.6814 322.425Q27.6816 321.898 27.8896 321.413Q28.0977 320.928 28.4799 320.565L28.4799 320.565L28.4799 320.565L142.229 212.417Z">
</path>
<rect  x="144.00090418369587" y="205.83806522273287" width="163.69627380371094" height="163.6963348388672" transform="rotate(45.000004829672754 144.00090418369587 205.83806522273287)" rx="0.57"    fill="#EEC7A0" >
</rect>
<path   fill="rgba(18, 1, 1, 1)"  d="M29.0522 321.593L143.999 436.54C144 436.541 144.002 436.541 144.002 436.54L258.95 321.593C258.95 321.592 258.95 321.591 258.95 321.59L144.002 206.643C144.002 206.642 144 206.642 143.999 206.643L29.0522 321.59C29.0514 321.591 29.0514 321.592 29.0522 321.593ZM28.249 322.396C27.8045 321.952 27.8045 321.231 28.2489 320.787L143.196 205.839C143.641 205.395 144.361 205.395 144.806 205.839L259.753 320.787C260.197 321.231 260.197 321.952 259.753 322.396L144.806 437.343C144.361 437.788 143.641 437.788 143.196 437.343L28.249 322.396Z">
</path>
<rect  x="144.00090418369587" y="221.74208743952974" width="141.20458984375" height="141.2046661376953" transform="rotate(45.000002414836686 144.00090418369587 221.74208743952974)" rx="0.57"    fill="#C63137" >
</rect>
<path   fill="rgba(18, 1, 1, 1)"  d="M44.9621 321.587L143.999 420.624C144 420.625 144.002 420.625 144.002 420.624L243.04 321.587C243.04 321.586 243.04 321.585 243.04 321.584L144.002 222.547C144.002 222.546 144 222.546 143.999 222.547L44.9621 321.584C44.9613 321.585 44.9613 321.586 44.9621 321.587ZM44.1589 322.39C43.7144 321.946 43.7144 321.225 44.1588 320.781L143.196 221.743C143.641 221.299 144.361 221.299 144.806 221.743L243.843 320.781C244.287 321.225 244.287 321.946 243.843 322.39L144.806 421.428C144.361 421.872 143.641 421.872 143.196 421.428L44.1589 322.39Z">
</path>
<g opacity="0.6">
<g  mask="url(#mask-ECU_oukjsd5ZCyxQM1D8K)">
<path    stroke="rgba(238, 199, 160, 1)" stroke-width="1.136"  stroke-linecap="round"  d="M76.9332 306.272L79.1087 304.446">
</path>
<path    stroke="rgba(238, 199, 160, 1)" stroke-width="1.136"  stroke-linecap="round"  d="M81.1391 308.7L81.6323 305.903">
</path>
<path    stroke="rgba(238, 199, 160, 1)" stroke-width="1.136"  stroke-linecap="round"  d="M85.9221 307.857L84.5021 305.397">
</path>
<path    stroke="rgba(238, 199, 160, 1)" stroke-width="1.136"  stroke-linecap="round"  d="M89.0439 304.136L86.3752 303.165">
</path>
<path    stroke="rgba(238, 199, 160, 1)" stroke-width="1.136"  stroke-linecap="round"  d="M89.0439 299.28L86.3752 300.251">
</path>
<path    stroke="rgba(238, 199, 160, 1)" stroke-width="1.136"  stroke-linecap="round"  d="M85.9221 295.559L84.5021 298.019">
</path>
<path    stroke="rgba(238, 199, 160, 1)" stroke-width="1.136"  stroke-linecap="round"  d="M81.1392 294.716L81.6324 297.513">
</path>
<path    stroke="rgba(238, 199, 160, 1)" stroke-width="1.136"  stroke-linecap="round"  d="M76.9332 297.144L79.1087 298.97">
</path>
<path    stroke="rgba(238, 199, 160, 1)" stroke-width="1.136"  stroke-linecap="round"  d="M75.272 301.708L78.112 301.708">
</path>
</g>
</g>
<g opacity="0.4">
<g  mask="url(#mask-ECU_oukjsd5ZCyxQM1D8K)">
<path    stroke="rgba(238, 199, 160, 1)" stroke-width="1.136"  stroke-linecap="round"  d="M88.2932 354.552L90.4688 352.726">
</path>
<path    stroke="rgba(238, 199, 160, 1)" stroke-width="1.136"  stroke-linecap="round"  d="M92.4991 356.98L92.9922 354.183">
</path>
<path    stroke="rgba(238, 199, 160, 1)" stroke-width="1.136"  stroke-linecap="round"  d="M97.282 356.137L95.862 353.677">
</path>
<path    stroke="rgba(238, 199, 160, 1)" stroke-width="1.136"  stroke-linecap="round"  d="M100.404 352.416L97.7353 351.445">
</path>
<path    stroke="rgba(238, 199, 160, 1)" stroke-width="1.136"  stroke-linecap="round"  d="M100.404 347.56L97.7353 348.531">
</path>
<path    stroke="rgba(238, 199, 160, 1)" stroke-width="1.136"  stroke-linecap="round"  d="M97.282 343.839L95.862 346.299">
</path>
<path    stroke="rgba(238, 199, 160, 1)" stroke-width="1.136"  stroke-linecap="round"  d="M92.4992 342.996L92.9924 345.793">
</path>
<path    stroke="rgba(238, 199, 160, 1)" stroke-width="1.136"  stroke-linecap="round"  d="M88.2932 345.424L90.4688 347.25">
</path>
<path    stroke="rgba(238, 199, 160, 1)" stroke-width="1.136"  stroke-linecap="round"  d="M86.6321 349.988L89.4721 349.988">
</path>
</g>
</g>
<g opacity="0.6">
<g  mask="url(#mask-ECU_oukjsd5ZCyxQM1D8K)">
<path    stroke="rgba(238, 199, 160, 1)" stroke-width="1.136"  stroke-linecap="round"  d="M203.029 336.39L205.205 334.564">
</path>
<path    stroke="rgba(238, 199, 160, 1)" stroke-width="1.136"  stroke-linecap="round"  d="M207.235 338.818L207.728 336.022">
</path>
<path    stroke="rgba(238, 199, 160, 1)" stroke-width="1.136"  stroke-linecap="round"  d="M212.018 337.975L210.598 335.515">
</path>
<path    stroke="rgba(238, 199, 160, 1)" stroke-width="1.136"  stroke-linecap="round"  d="M215.14 334.255L212.471 333.283">
</path>
<path    stroke="rgba(238, 199, 160, 1)" stroke-width="1.136"  stroke-linecap="round"  d="M215.14 329.398L212.471 330.369">
</path>
<path    stroke="rgba(238, 199, 160, 1)" stroke-width="1.136"  stroke-linecap="round"  d="M212.018 325.677L210.598 328.137">
</path>
<path    stroke="rgba(238, 199, 160, 1)" stroke-width="1.136"  stroke-linecap="round"  d="M207.235 324.834L207.728 327.631">
</path>
<path    stroke="rgba(238, 199, 160, 1)" stroke-width="1.136"  stroke-linecap="round"  d="M203.029 327.262L205.205 329.088">
</path>
<path    stroke="rgba(238, 199, 160, 1)" stroke-width="1.136"  stroke-linecap="round"  d="M201.368 331.826L204.208 331.826">
</path>
</g>
</g>
<g mask="url(#mask-ECU_oukjsd5ZCyxQM1D8K)" opacity="0.6">
<path d="M172.97 256.268L154.508 256.268L154.508 260.812L215.57 260.812C218.71 260.812 221.25 263.352 221.25 266.492C221.25 269.632 218.71 272.172 215.57 272.172L114.748 272.172L114.748 276.716L175.81 276.716C178.95 276.716 181.49 279.256 181.49 282.396C181.49 285.536 178.95 288.076 175.81 288.076L43.18 288.076C40.04 288.076 37.5 285.536 37.5 282.396C37.5 279.256 40.04 276.716 43.18 276.716L104.524 276.716L104.524 272.172L82.9401 272.172C79.8001 272.172 77.2601 269.632 77.2601 266.492C77.2601 263.352 79.8001 260.812 82.9401 260.812L144.284 260.812L144.284 256.268L40.34 256.268C37.2 256.268 34.66 253.728 34.66 250.588C34.66 247.448 37.2 244.908 40.34 244.908L172.97 244.908C176.11 244.908 178.65 247.448 178.65 250.588C178.65 253.728 176.11 256.268 172.97 256.268Z" stroke="rgba(238, 199, 160, 1)" stroke-width="1.136"   >
</path>
</g>
<g mask="url(#mask-ECU_oukjsd5ZCyxQM1D8K)" opacity="0.6">
<path d="M253.342 357.94L234.88 357.94L234.88 362.484L295.942 362.484C299.082 362.484 301.622 365.024 301.622 368.164C301.622 371.304 299.082 373.844 295.942 373.844L195.12 373.844L195.12 378.388L256.182 378.388C259.322 378.388 261.862 380.928 261.862 384.068C261.862 387.208 259.322 389.748 256.182 389.748L123.552 389.748C120.412 389.748 117.872 387.208 117.872 384.068C117.872 380.928 120.412 378.388 123.552 378.388L184.896 378.388L184.896 373.844L163.312 373.844C160.172 373.844 157.632 371.304 157.632 368.164C157.632 365.024 160.172 362.484 163.312 362.484L224.656 362.484L224.656 357.94L120.712 357.94C117.572 357.94 115.032 355.4 115.032 352.26C115.032 349.12 117.572 346.58 120.712 346.58L253.342 346.58C256.482 346.58 259.022 349.12 259.022 352.26C259.022 355.4 256.482 357.94 253.342 357.94Z" stroke="rgba(238, 199, 160, 1)" stroke-width="1.136"   >
</path>
</g>
<g >
<path     fill="#000000"  d="M189.701 320.426L189.701 367.15L133.265 367.15L133.265 320.426L189.701 320.426ZM95.9472 336.171Q108.625 318.177 114.759 299.569L98.0942 299.569L98.0942 286.687L108.932 286.687L108.932 274.623L122.018 274.623L122.018 286.687L131.424 286.687Q128.664 301.716 123.041 315.723L130.198 319.302L130.198 333.206L121.2 328.708L121.2 367.15L107.909 367.15L107.909 336.171L95.9472 336.171ZM132.549 276.054L190.417 276.054L190.417 287.301L132.549 287.301L132.549 276.054ZM135.821 291.083L187.145 291.083L187.145 316.541L135.821 316.541L135.821 291.083ZM155.451 356.517L155.451 348.645L146.045 348.645L146.045 356.517L155.451 356.517ZM155.451 338.932L155.451 331.059L146.045 331.059L146.045 338.932L155.451 338.932ZM174.059 306.522L174.059 301.103L148.908 301.103L148.908 306.522L174.059 306.522ZM176.921 356.517L176.921 348.645L167.515 348.645L167.515 356.517L176.921 356.517ZM176.921 338.932L176.921 331.059L167.515 331.059L167.515 338.932L176.921 338.932Z">
</path>
</g>
</g>
</g>
<defs>
<clipPath id="clip-path-wtKNL6SgNJKxZ5va_SS_O">
<path d="M16.2 494.95L271.8 494.95L271.8 12.15L16.2 12.15L16.2 494.95Z" fill="white"/>
</clipPath>
<mask id="mask-ECU_oukjsd5ZCyxQM1D8K" style="mask-type:alpha" maskUnits="userSpaceOnUse">
<rect  x="144.00090418369587" y="221.74208743952974" width="141.20458984375" height="141.2046661376953" transform="rotate(45.000002414836686 144.00090418369587 221.74208743952974)" rx="0.57"    fill="#C63137" >
</rect>
<path   fill="rgba(18, 1, 1, 1)"  d="M44.9621 321.587L143.999 420.624C144 420.625 144.002 420.625 144.002 420.624L243.04 321.587C243.04 321.586 243.04 321.585 243.04 321.584L144.002 222.547C144.002 222.546 144 222.546 143.999 222.547L44.9621 321.584C44.9613 321.585 44.9613 321.586 44.9621 321.587ZM44.1589 322.39C43.7144 321.946 43.7144 321.225 44.1588 320.781L143.196 221.743C143.641 221.299 144.361 221.299 144.806 221.743L243.843 320.781C244.287 321.225 244.287 321.946 243.843 322.39L144.806 421.428C144.361 421.872 143.641 421.872 143.196 421.428L44.1589 322.39Z">
</path>
</mask>
<filter id="filter_wtKNL6SgNJKxZ5va_SS_O" x="0" y="0" width="287.99997731270423" height="515.200096331259" filterUnits="userSpaceOnUse" color-interpolation-filters="sRGB">
<feFlood flood-opacity="0" result="feFloodId_wtKNL6SgNJKxZ5va_SS_O"/>
<feColorMatrix in="SourceAlpha" type="matrix" values="0 0 0 0 0 0 0 0 0 0 0 0 0 0 0 0 0 0 127 0" result="hardAlpha_wtKNL6SgNJKxZ5va_SS_O"/>
<feOffset dx="0" dy="4.050000215845846"/>
<feGaussianBlur stdDeviation="8.100000431691692"/>
<feComposite in2="hardAlpha_wtKNL6SgNJKxZ5va_SS_O" operator="out"/>
<feColorMatrix type="matrix" values="0 0 0 0 0 0 0 0 0 0 0 0 0 0 0 0 0 0 0.25 0"/>
<feBlend mode="normal" in2="feFloodId_wtKNL6SgNJKxZ5va_SS_O" result="dropShadow_1_wtKNL6SgNJKxZ5va_SS_O"/>
<feBlend mode="normal" in="SourceGraphic" in2="dropShadow_1_wtKNL6SgNJKxZ5va_SS_O" result="shape_wtKNL6SgNJKxZ5va_SS_O"/>
</filter>
</defs>
</svg>
